<?xml version="1.0" encoding="UTF-8" standalone="no"?>
<svg
   xmlns:dc="http://purl.org/dc/elements/1.1/"
   xmlns:cc="http://creativecommons.org/ns#"
   xmlns:rdf="http://www.w3.org/1999/02/22-rdf-syntax-ns#"
   xmlns:svg="http://www.w3.org/2000/svg"
   xmlns="http://www.w3.org/2000/svg"
   xmlns:sodipodi="http://sodipodi.sourceforge.net/DTD/sodipodi-0.dtd"
   xmlns:inkscape="http://www.inkscape.org/namespaces/inkscape"
   width="177.41106mm"
   height="74.884132mm"
   viewBox="0 0 177.41105 74.884132"
   version="1.1"
   id="svg2021"
   inkscape:version="1.0.2 (e86c870879, 2021-01-15, custom)"
   sodipodi:docname="scaryeyeswhit_trans.svg"
   inkscape:export-filename="C:\SCAR\scar_white_trans.png"
   inkscape:export-xdpi="96"
   inkscape:export-ydpi="96">
  <defs
     id="defs2015">
    <rect
       x="158.4979"
       y="182.97888"
       width="56.527505"
       height="52.785732"
       id="rect1000" />
    <rect
       x="64.285385"
       y="184.84978"
       width="75.370003"
       height="21.515198"
       id="rect986" />
    <rect
       x="104.76965"
       y="129.09119"
       width="102.6315"
       height="69.757347"
       id="rect4346" />
    <rect
       x="105.57146"
       y="130.96207"
       width="101.82969"
       height="49.979401"
       id="rect4340" />
  </defs>
  <sodipodi:namedview
     id="base"
     pagecolor="#ffffff"
     bordercolor="#666666"
     borderopacity="1.0"
     inkscape:pageopacity="0.0"
     inkscape:pageshadow="2"
     inkscape:zoom="11.2"
     inkscape:cx="139.10339"
     inkscape:cy="203.74413"
     inkscape:document-units="mm"
     inkscape:current-layer="g982"
     inkscape:document-rotation="0"
     showgrid="false"
     showguides="true"
     inkscape:guide-bbox="true"
     inkscape:window-width="1920"
     inkscape:window-height="1017"
     inkscape:window-x="1912"
     inkscape:window-y="114"
     inkscape:window-maximized="1"
     fit-margin-top="0"
     fit-margin-left="0"
     fit-margin-right="0"
     fit-margin-bottom="0"
     inkscape:pagecheckerboard="true">
    <sodipodi:guide
       position="117.2671,58.253179"
       orientation="0,-1"
       id="guide998" />
    <sodipodi:guide
       position="121.89731,50.504667"
       orientation="0,-1"
       id="guide1000" />
    <sodipodi:guide
       position="117.73222,29.648765"
       orientation="1,0"
       id="guide911" />
  </sodipodi:namedview>
  <metadata
     id="metadata2018">
    <rdf:RDF>
      <cc:Work
         rdf:about="">
        <dc:format>image/svg+xml</dc:format>
        <dc:type
           rdf:resource="http://purl.org/dc/dcmitype/StillImage" />
        <dc:title />
      </cc:Work>
    </rdf:RDF>
  </metadata>
  <g
     inkscape:groupmode="layer"
     id="layer3"
     inkscape:label="scar"
     style="display:inline"
     transform="translate(-1.8779525,-120.03691)">
    <g
       inkscape:groupmode="layer"
       id="layer4"
       inkscape:label="scar 1" />
    <g
       inkscape:groupmode="layer"
       id="layer2"
       inkscape:label="eyes"
       style="display:inline" />
    <g
       inkscape:groupmode="layer"
       id="layer5"
       inkscape:label="eyes 1">
      <g
         id="g982">
        <g
           transform="matrix(0.03527778,0,0,-0.03527778,0.81961905,210.47865)"
           fill="#0d0c0d"
           stroke="none"
           id="g1428"
           style="display:inline;fill:#ffffff;fill-opacity:0.60241;stroke-width:0.992126;stroke-miterlimit:4;stroke-dasharray:none"
           mask="none">
          <path
             id="node1"
             style="fill:#ffffff;fill-opacity:0.60241;stroke-width:0.992126;stroke-miterlimit:4;stroke-dasharray:none"
             d="M 409,2405 C 302,2371 193,2199 101,1922 54,1779 30,1703 30,1695 c 0,-3 26,44 57,106 45,90 71,126 127,183 106,107 234,165 280,127 13,-11 13,-18 -6,-64 -73,-182 -125,-347 -138,-434 -36,-258 13,-396 202,-561 85,-74 146,-107 278,-150 180,-59 393,-82 763,-82 221,0 233,-3 185,-47 -34,-30 -144,-103 -213,-140 -70,-38 -52,-43 53,-14 159,44 260,111 331,222 49,75 77,109 89,109 5,0 15,-13 21,-28 16,-39 87,-110 134,-133 23,-12 53,-19 75,-17 l 37,3 -36,18 c -76,38 -102,97 -44,97 66,0 262,54 360,99 77,36 118,71 153,130 26,45 27,50 27,204 0,140 2,160 17,168 23,13 51,-2 106,-55 49,-47 47,-26 -4,42 -39,51 -67,75 -114,94 -30,13 -43,13 -88,2 -68,-18 -113,-48 -194,-131 -65,-67 -93,-101 -205,-253 -31,-41 -70,-90 -86,-107 -30,-32 -31,-32 -45,-12 -12,17 -11,33 3,115 10,52 15,97 12,100 -3,3 -22,-19 -44,-50 -21,-30 -42,-54 -48,-52 -5,1 -16,29 -25,62 -26,100 -45,113 -48,32 -6,-135 -62,-278 -111,-278 -16,0 -89,76 -272,285 -15,17 -51,57 -80,90 -30,33 -117,132 -194,220 -77,87 -183,207 -235,265 -52,58 -126,142 -165,185 -139,158 -297,325 -328,347 -39,28 -140,35 -208,13 z m 355,-461 c 17,-15 69,-61 115,-103 46,-42 88,-79 95,-83 8,-5 7,-16 -3,-40 -60,-148 -65,-172 -66,-273 0,-91 3,-105 29,-158 52,-103 129,-151 228,-145 71,5 122,39 174,114 21,30 43,53 50,52 7,-2 54,-50 104,-108 191,-218 260,-299 260,-306 0,-8 -84,1 -193,22 -365,70 -443,89 -618,150 -193,68 -280,124 -327,213 -46,86 -62,145 -62,235 0,96 20,175 70,283 36,78 95,173 107,173 3,0 19,-12 37,-26 z m 1897,-556 c 20,-46 17,-164 -5,-221 -36,-94 -165,-171 -356,-212 -56,-12 -67,-12 -79,0 -20,19 -4,52 55,116 l 47,49 34,-20 c 50,-30 98,-26 134,9 34,35 35,41 10,120 l -19,61 69,65 c 38,36 75,65 83,65 7,0 20,-15 27,-32 z M 466.77299,777.54099 c -0.42604,11.11011 1.32151,42.43549 2.98256,53.44979 0.45496,3.00444 2.07099,12.35169 3.59569,20.77172 1.52476,8.4206 3.08455,19.08822 3.4664,23.70557 0.38183,4.61792 1.30337,9.00482 2.04775,9.74891 0.74353,0.74268 1.97065,5.21802 2.7258,9.94224 0.75515,4.72365 2.70198,13.08132 4.32669,18.57231 1.62567,5.48986 3.63138,13.46939 4.45898,17.73014 0.82885,4.26019 2.91481,11.36637 4.63839,15.7904 1.72233,4.42431 4.55519,14.16869 6.29319,21.65697 1.73792,7.488 3.78131,14.23616 4.54096,14.99584 1.80992,1.81134 8.42029,21.94072 8.42009,25.64112 0,1.5788 1.1126,5.2304 2.47238,8.113 1.36006,2.8834 4.91941,12.8509 7.90996,22.1505 2.99036,9.2993 6.15751,17.6286 7.03823,18.5094 0.87987,0.8787 4.54898,10.7943 8.1521,22.03 3.60269,11.2359 7.21641,21.0948 8.03061,21.9092 0.81184,0.8107 3.86268,8.4762 6.77466,17.0275 2.9118,8.5512 9.85402,27.6414 15.42724,42.423 5.57323,14.7812 10.57,29.2504 11.10357,32.1537 0.53319,2.9023 2.57981,9.4407 4.54736,14.5284 4.4576,11.527 11.42206,44.81 10.89471,52.0664 -0.21544,2.9747 -0.89802,7.077 -1.51427,9.1132 -0.67153,2.2138 0.0234,4.8475 1.72913,6.5534 1.69172,1.6923 2.18296,3.5178 1.20671,4.494 -0.91814,0.9184 -0.33874,3.6581 1.31244,6.2056 1.62425,2.5087 3.10023,5.4573 3.27739,6.5526 0.17575,1.0942 2.37515,6.41 4.88412,11.81 2.86932,6.1727 4.00839,10.8878 3.07015,12.6986 -0.82176,1.5846 -1.02954,3.3426 -0.46658,3.9059 0.56523,0.5641 -0.45298,3.1909 -2.26205,5.834 -1.80935,2.6418 -3.05348,5.0417 -2.76888,5.3263 0.28658,0.2863 6.23086,2.4859 13.20817,4.8909 l 12.68742,4.3698 2.10756,10.4301 c 2.17786,10.7742 1.90432,22.862 -0.5726,25.3389 -0.77754,0.7767 -0.98447,5.1217 -0.45893,9.6526 1.08029,9.3069 14.64812,52.4437 18.48555,58.7707 1.38302,2.2762 4.78871,10.6149 7.57261,18.5298 3.72578,10.591 6.50588,15.8246 10.5315,19.8263 6.72775,6.6929 7.07392,8.2403 7.32547,33.0922 0.17291,17.1848 1.38897,25.6108 6.32948,43.9084 0.48699,1.8113 1.02472,4.7568 1.19111,6.5449 0.16725,1.7915 2.43667,5.0587 5.04508,7.2661 3.9202,3.3188 6.18837,3.7831 13.09532,2.6787 9.41644,-1.5052 10.1651,-1.148 12.37876,5.891 2.06986,6.5826 2.87671,7.2445 6.5249,5.3543 4.66724,-2.4179 6.54457,0.9468 7.17775,12.8611 0.31833,5.9885 1.72119,13.3254 3.11805,16.304 1.39606,2.9798 2.25411,5.7019 1.90431,6.0517 -0.34866,0.3487 0.48104,1.8595 1.84649,3.3577 2.00013,2.1996 24.05458,33.5117 32.96452,46.8104 1.33682,1.9956 1.03238,8.0209 -0.85578,16.8993 -6.74099,31.6982 -8.05788,71.7285 -2.89616,88.0209 0.90794,2.8684 2.32243,8.0541 3.1407,11.52 2.13279,9.0354 12.35509,25.7808 21.03934,34.465 6.59928,6.5994 8.51309,7.6312 16.63551,8.964 8.86683,1.457 18.15622,5.0105 21.29491,8.1493 0.83395,0.8334 2.05058,6.7346 2.70255,13.1108 1.25263,12.2548 4.69412,17.9127 9.98612,16.4183 6.27275,-1.7716 7.85301,-20.8508 2.429,-29.3278 -1.44708,-2.262 -2.83294,-7.1297 -3.07896,-10.8179 -0.39373,-5.8912 0.0539,-6.9071 3.67268,-8.3673 2.26488,-0.9127 5.85544,-2.997 7.9759,-4.6287 2.1206,-1.6299 4.72555,-2.7609 5.79149,-2.5086 1.06639,0.2551 3.62554,-0.8844 5.6939,-2.52 2.06645,-1.6384 4.20681,-3.3089 4.75803,-3.712 0.5573,-0.3968 1.48337,-0.2551 2.07241,0.3373 0.59131,0.5925 -1.07291,4.392 -3.69671,8.4467 -4.47602,6.9217 -4.60491,8.0005 -2.06504,17.5961 3.16774,11.9676 4.02463,13.0751 9.89189,12.782 2.42334,-0.1134 4.7825,0.17 5.24251,0.6151 0.45892,0.4592 -1.10835,5.1049 -3.48546,10.3215 -2.3777,5.216 -4.19881,10.8082 -4.04847,12.4257 0.15024,1.6185 -0.17291,3.3874 -0.71858,3.9336 -1.71978,1.7206 -5.86967,22.6672 -5.24029,26.4569 0.74494,4.4889 -0.80731,6.1441 -6.00378,6.4046 -3.75424,0.1984 -4.04467,0.496 -4.24491,4.5657 -0.31692,6.3508 4.40949,12.2097 15.35329,19.0333 13.5892,8.4727 19.04536,14.426 22.28848,24.317 2.69433,8.2199 2.88595,8.4484 7.83119,9.3305 13.18611,2.3527 24.22232,18.7923 24.22213,36.0816 l 1.9e-4,9.4771 8.47982,0.1134 c 9.87908,0.1134 11.24926,2.4746 5.52713,9.504 -3.06655,3.7638 -3.66466,6.0338 -2.54069,9.6301 1.3663,4.377 1.86661,4.6727 7.17253,4.2741 l 5.70331,-0.428 1.8017,13.6247 c 0.99071,7.4937 2.2388,14.0624 2.77342,14.5967 0.53319,0.5329 1.87426,5.2178 2.97513,10.4088 5.8833,27.7155 15.5944,53.2066 27.61276,72.4825 3.1413,5.0374 6.72154,13.7594 7.95708,19.3816 1.23533,5.6222 2.55458,10.5304 2.93201,10.908 1.25688,1.2557 4.24551,32.1792 5.08377,52.5847 0.936,22.78 -1.09134,75.7771 -3.58668,93.7533 -2.92762,21.0909 -4.09036,26.2088 -8.15629,35.8999 -3.83281,9.1344 -3.82479,9.6367 0.20976,12.9096 2.30938,1.8737 4.58889,3.4103 5.06752,3.4157 0.47906,0.01 2.46303,-3.3769 4.41108,-7.5177 5.37557,-11.4313 9.50847,-16.5969 11.60147,-14.5038 1.7799,1.7802 0.9536,58.7917 -1.2353,85.3186 -0.6716,8.132 -1.5903,19.8394 -2.0418,26.0158 -2.465,33.7068 -6.57888,61.8415 -10.75525,73.5531 -1.50321,4.2214 -2.62205,8.3066 -2.48315,9.0816 0.1389,0.7767 -0.57203,3.9677 -1.58003,7.094 -1.00913,3.1255 -1.61064,5.9066 -1.3388,6.1784 1.6937,1.6923 9.28335,3.4886 10.33285,2.4435 1.91088,-1.9021 10.08838,-25.1104 14.51748,-41.2019 1.6475,-5.9856 3.8546,-11.7708 4.9043,-12.8562 1.0522,-1.0829 1.9236,-3.3347 1.9443,-4.995 0.018,-1.6611 1.0247,-6.1951 2.2334,-10.0754 1.2096,-3.8792 3.9062,-12.7795 5.994,-19.7776 3.582,-12.0048 4.9212,-16.6442 10.595,-36.711 2.221,-7.8545 5.3728,-20.5137 13.558,-54.4586 1.9774,-8.1998 4.0711,-18.076 4.653,-21.9467 0.5805,-3.8718 1.6982,-9.6684 2.4809,-12.8834 6.1823,-25.3885 8.3445,-71.7869 4.4559,-95.6163 -0.803,-4.9218 -1.1075,-9.0408 -0.6766,-9.1539 3.8637,-1.0148 4.6903,-6.1535 2.8803,-17.9017 -1.8895,-12.2575 -3.3772,-24.4338 -7.4728,-61.1631 -6.2509,-56.056 -5.7774,-83.6249 1.863,-108.5315 1.976,-6.4423 4.414,-16.1535 5.4174,-21.581 1.0038,-5.4275 2.3369,-10.3799 2.9621,-11.0052 1.7538,-1.7547 3.2195,-12.4912 1.8859,-13.8246 -0.7837,-0.7852 -4.6233,2.812 -11.3475,10.6259 -8.8776,10.3207 -10.3935,11.5801 -11.9931,9.9806 -1.9865,-1.9871 -5.8943,-14.6263 -8.1871,-26.4805 -0.7909,-4.0861 -2.3202,-11.4363 -3.3997,-16.3321 -3.9504,-17.9158 -5.9486,-45.2511 -3.4878,-47.7119 0.7716,-0.771 0.97,-2.2733 0.443,-3.3335 -0.6253,-1.2501 1.1787,-3.9487 5.1231,-7.6725 l 6.0949,-5.7342 -1.4621,-15.4585 c -0.8042,-8.5022 -1.9899,-15.9863 -2.6351,-16.6311 -0.7395,-0.7399 -2.0403,0.3968 -3.5273,3.0781 -1.2949,2.3386 -3.9665,5.3416 -5.9326,6.6784 l -3.5779,2.4265 -1.5871,-10.3082 c -0.8728,-5.6693 -2.2391,-11.7371 -3.0369,-13.4838 -0.7976,-1.749 -3.3531,-11.1615 -5.6788,-20.9209 -2.3261,-9.7599 -6.9797,-23.3212 -10.3421,-30.1362 -3.3628,-6.8142 -6.2393,-13.5204 -6.3932,-14.9012 -0.1531,-1.3805 -0.98422,-2.6759 -1.84085,-2.8791 -2.4395,-0.5755 -35.78613,-52.9305 -40.72757,-63.9437 -0.59329,-1.3181 -2.03726,-3.6567 -3.21443,-5.1987 -3.40168,-4.46 -31.82822,-53.2828 -34.02847,-58.4453 -1.09644,-2.571 -3.23229,-6.287 -4.7478,-8.2553 -3.287,-4.2693 -20.29774,-37.1348 -20.71704,-40.0258 -0.16157,-1.1112 -1.71723,-4.1108 -3.45659,-6.6677 -3.57183,-5.2475 -8.83418,-20.4794 -11.01598,-31.8903 -0.80192,-4.1933 -2.50044,-9.2605 -3.77486,-11.2595 -3.87771,-6.0826 -31.44478,-85.699 -34.35078,-99.2092 -1.16419,-5.4119 -2.72381,-10.4473 -3.46558,-11.1892 -0.74154,-0.7426 -1.30252,-7.361 -1.24554,-14.7092 l 0.10488,-13.36 -8.84701,-7.1875 c -10.92799,-8.8793 -14.96903,-14.2875 -18.23239,-24.4046 -4.30526,-13.3486 -4.85747,-19.2626 -2.29521,-24.5753 1.35525,-2.8091 1.86293,-5.5068 1.12706,-5.9927 -6.80091,-4.4878 -40.06026,-34.7862 -46.83974,-42.671 -10.63332,-12.369 -22.12934,-29.5912 -23.32698,-34.9504 -2.86988,-12.8466 -28.96914,-57.8213 -39.89372,-68.7458 -3.03585,-3.0359 -4.01922,-6.8054 -4.68749,-17.9869 -0.67521,-11.2768 -2.12116,-16.7741 -7.13024,-27.0978 -3.45557,-7.1235 -6.71833,-14.7853 -7.24989,-17.0269 -0.60122,-2.537 -3.94324,-6.8817 -8.85662,-11.5104 -4.62997,-4.3494 -7.7025,-8.2879 -7.43751,-9.494 0.24661,-1.1339 -0.34073,-3.564 -1.30451,-5.4049 -2.18211,-4.1621 -1.33426,-15.5369 1.3595,-18.2307 1.10239,-1.1027 2.08148,-4.1139 2.17219,-6.6909 0.15023,-4.25 -0.77358,-5.504 -9.95023,-13.502 -12.46073,-10.8612 -14.63108,-16.4792 -11.65156,-30.1348 1.93635,-8.8702 2.60278,-9.9068 12.40521,-19.2861 13.20137,-12.6281 14.8121,-16.2751 11.31644,-25.6175 -1.52306,-4.0726 -3.1379,-11.5115 -3.58767,-16.5306 -0.62107,-6.9292 -1.76287,-9.9022 -4.7444,-12.3539 -3.53957,-2.9103 -4.39084,-2.8355 -8.62254,0.7483 -5.82678,4.9369 -8.38698,2.9588 -7.62571,-5.8898 0.73333,-8.51583 -5.27238,-15.11999 -11.59886,-12.75334 -4.04506,1.51086 -9.69086,-1.45417 -7.30783,-3.83641 1.68577,-1.68662 -2.14582,-4.95184 -7.94562,-6.77509 -6.66261,-2.0948 -9.6622,-5.30305 -14.95701,-15.99505 -2.42532,-4.89487 -5.51851,-10.33172 -6.87549,-12.07984 -1.82494,-2.34992 -1.74047,-4.41014 0.32315,-7.90611 2.38451,-4.03994 2.27339,-5.24381 -0.75515,-8.27235 -2.60475,-2.60504 -4.34111,-3.07842 -6.54497,-1.78866 -1.65174,0.96661 -3.38921,0.88441 -3.86367,-0.17008 -0.47311,-1.06583 -3.47562,-5.29568 -6.66601,-9.39997 -6.52873,-8.39282 -6.62335,-9.32513 -3.13889,-31.02859 1.29146,-8.04331 1.99105,-15.01852 1.55452,-15.50041 -0.4371,-0.47622 -4.81898,3.37975 -9.73695,8.58245 -7.77325,8.21424 -9.45975,9.37956 -12.89169,8.8458 -7.8815,-1.2189 -14.1296,-7.81483 -19.67555,-20.76576 -2.85007,-6.65859 -5.2778,-13.08784 -5.39445,-14.28888 -0.26646,-2.74111 -6.01038,-14.84533 -20.49576,-43.19405 -6.23809,-12.20825 -11.33408,-22.72535 -11.32464,-23.37052 0.012,-0.6463 -0.76563,-1.9559 -1.71808,-2.90863 -0.95414,-0.95527 -5.28321,-7.25952 -9.61951,-14.01307 -6.42809,-10.01196 -8.485,-12.33354 -11.12862,-12.57987 -5.33069,-0.49606 -7.03862,2.90693 -7.50024,14.94227 z M 1096.4333,456.36148 c -2.0245,28.30734 -2.1884,38.96844 -0.9921,64.50236 0.6876,14.67326 1.9785,32.11795 2.869,38.76548 0.8907,6.64724 1.9216,14.38582 2.2913,17.19666 1.3861,10.54205 13.5331,66.45231 15.0779,69.40034 0.8838,1.68662 2.8989,9.04224 4.476,16.34117 1.5772,7.29921 3.4816,13.89259 4.2327,14.65228 0.7557,0.75685 3.858,10.11855 6.9047,20.79808 3.0465,10.67952 6.3307,20.21073 7.298,21.18075 0.9672,0.96945 3.9194,8.45093 6.5592,16.62463 2.6399,8.17342 5.9509,16.75219 7.358,19.06327 1.4071,2.31307 4.6544,9.99241 7.2164,17.06996 5.7646,15.92418 7.8638,21.01832 11.8642,28.79262 1.7283,3.35991 4.4821,9.97399 6.118,14.69877 1.6371,4.72366 4.5348,11.71446 6.4408,15.53301 2.9548,5.92158 8.1346,20.13987 20.7721,57.02768 1.3417,3.91918 2.8635,13.42687 3.3799,21.12803 0.5167,7.70202 1.9006,16.32529 3.0761,19.16277 1.1747,2.83805 1.6795,5.616 1.1205,6.17499 -0.5593,0.55843 0.057,2.09197 1.372,3.40441 1.315,1.31528 4.6261,9.71008 7.3619,18.65962 2.7358,8.94926 6.0862,18.05188 7.446,20.22889 1.3589,2.177 2.2359,6.50381 1.9482,9.61653 -2.1339,23.05782 -1.7674,25.49702 5.3381,35.54472 8.7979,12.4379 9.904,13.4799 11.2098,10.5483 1.5594,-3.4954 2.6445,-1.6214 3.3969,5.8584 4.4515,44.2834 8.2639,61.0923 17.3238,76.3787 8.4307,14.2248 19.7672,48.1475 19.1688,57.3593 -0.5655,8.7057 1.9412,24.7793 5.0429,32.3322 1.9534,4.7554 2.9515,5.7697 6.7544,6.8749 6.0409,1.7376 6.6767,2.5512 4.0447,5.1832 -2.6762,2.6759 -2.5175,3.5036 1.8898,9.8469 3.0307,4.3614 3.8998,4.7135 8.2162,3.3157 6.8621,-2.2223 15.4092,-3.8344 22.4008,-4.2276 7.9398,-0.445 14.0785,5.3774 14.2777,13.5443 0.102,4.2239 2.8715,10.1281 10.3371,22.0447 5.6083,8.9515 10.3984,17.1284 10.6443,18.1704 0.2467,1.0403 1.3842,3.0841 2.5271,4.5394 1.1384,1.4598 4.4937,7.5163 7.4419,13.473 l 5.3616,10.8298 -5.5231,7.0946 c -3.0371,3.9027 -7.4025,9.3787 -9.6983,12.1716 -5.3688,6.5313 -8.1182,15.4202 -6.0192,19.4715 0.906,1.749 2.2564,3.1782 3.0092,3.1694 0.7455,0 1.0281,1.8454 0.6307,4.1023 -0.6829,3.886 6.5716,57.2295 7.9753,58.6332 0.3628,0.3629 2.1634,6.3805 3.9992,13.3711 4.1956,15.9769 9.0023,25.0166 18.2219,34.2683 8.4937,8.5286 15.8939,11.9812 23.6583,11.0545 4.3259,-0.5187 5.9986,0.1134 7.4305,2.7893 2.7817,5.203 5.2295,15.5815 5.1505,21.8435 l -0.071,5.5704 h 4.6602 l 4.6604,3e-4 0.062,-18.7535 c 0.068,-20.1679 3.1577,-32.7586 8.8809,-36.1851 4.9659,-2.9735 14.9887,-0.8504 20.0949,4.2554 5.0827,5.0825 9.1929,21.3814 8.1172,32.1899 -1.2161,12.2157 -1.3417,13.0306 -4.1952,27.142 -3.279,16.2125 -10.2245,30.7321 -17.0574,35.6571 -7.4277,5.3509 -4.6166,7.7873 14.0279,12.1558 30.3883,7.1212 39.8901,15.4094 42.9152,37.4346 3.8344,27.9198 4.3451,30.1439 7.5571,32.9085 1.7941,1.5534 5.8507,2.6447 9.0032,2.435 6.8989,-0.4564 6.3323,-1.7859 13.2635,31.1128 2.7672,13.1346 5.4213,25.0526 5.8975,26.484 4.7136,14.1653 6.3049,19.573 8.1018,27.5361 1.1489,5.0936 2.6796,9.5799 3.3999,9.9694 2.0786,1.1254 4.7598,10.9985 3.3659,12.3922 -0.7497,0.7484 -2.0304,-0.085 -3.1495,-2.0551 -5.2978,-9.3024 -8.7722,-12.8945 -12.1671,-12.5798 -2.8683,0.2551 -3.6716,1.0573 -4.7766,4.6964 -0.7277,2.4066 -0.8535,4.8504 -0.275,5.4281 0.5771,0.5782 2.9845,8.7088 5.3485,18.07 2.3641,9.3608 4.9781,17.6995 5.8092,18.5306 0.8317,0.8306 3.7037,9.4286 6.3842,19.1055 2.6802,9.6772 5.6722,18.3943 6.6492,19.3711 0.9762,0.9752 2.5149,5.6177 3.4173,10.3142 0.9028,4.695 2.2442,9.1601 2.9825,9.9218 0.7381,0.7597 1.3612,2.7411 1.3861,4.3965 0.024,1.6555 1.5894,7.4725 3.4787,12.9229 2.1597,6.2311 3.0715,13.4782 2.4556,19.5188 -5.3718,52.6759 -3.7779,96.2566 4.5095,123.3011 1.3504,4.4093 2.8849,13.0542 3.4089,19.2136 0.9306,10.9414 -1.0469,67.8245 -2.8388,81.6522 -0.4961,3.8273 -1.8244,15.7368 -2.9519,26.4645 -3.4324,32.6594 -11.864,83.4599 -14.2479,85.8439 -0.5131,0.513 -1.6421,5.0334 -2.5086,10.0431 -2.3596,13.6457 -7.2193,28.5421 -9.0174,27.6432 -4.2337,-2.1175 -8.2617,-1.5562 -9.9637,1.389 -1.669,2.8876 -1.0857,3.8358 7.4027,12.0288 8.0629,7.7822 9.2404,9.5613 9.3858,14.2693 0.1899,5.9823 1.2676,7.6553 4.9288,7.6547 2.5775,0 12.0504,-17.1995 18.0133,-32.7078 1.5896,-4.1352 6.1493,-14.6679 10.132,-23.4069 10.559,-23.1681 9.0434,-16.5903 18.4034,-79.8814 2.3181,-15.6759 5.1451,-34.6357 6.2814,-42.133 2.3663,-15.6104 5.212,-36.5088 8.1987,-60.213 3.6881,-29.2714 4.8561,-38.2598 6.3957,-49.2151 1.8734,-13.3356 8.8145,-77.9125 9.9448,-92.5274 0.4583,-5.9244 1.4536,-18.1576 2.2116,-27.1848 2.637,-31.3977 4.9535,-89.9243 4.3455,-109.7963 -0.8218,-26.8736 -4.2802,-55.7053 -7.7542,-64.6452 -1.8762,-4.8269 -2.1949,-9.0539 -0.9385,-12.4297 2.6399,-7.0928 5.2304,-17.3704 5.3002,-21.0268 0.096,-5.0477 -7.1752,-6.4216 -9.8991,-1.8709 l -2.13,3.5569 -1.8383,-5.7466 c -1.0117,-3.1604 -2.2144,-8.498 -2.6733,-11.861 -0.459,-3.3656 -1.8063,-8.2608 -2.995,-10.8831 -1.1886,-2.6249 -3.2243,-9.6732 -4.5233,-15.6691 -2.2675,-10.4632 -2.0359,-11.893 5.7751,-35.6334 4.4752,-13.6029 7.4627,-24.8919 6.6387,-25.0864 -0.8238,-0.1984 -5.222,1.5846 -9.7748,3.9558 -7.6877,4.0033 -8.4381,4.0476 -10.5556,0.6321 -1.2526,-2.0211 -2.3202,-4.625 -2.3712,-5.7827 -0.051,-1.1593 -1.0015,-3.0138 -2.1129,-4.1252 -2.6269,-2.6278 -7.1539,-17.496 -7.386,-24.2592 -0.2325,-6.8142 2.0752,-14.0369 5.6195,-17.5813 2.8982,-2.8982 1.0429,-7.4566 -5.8336,-14.3331 -1.834,-1.8341 -2.2731,-3.8486 -1.2319,-5.6268 1.1605,-1.9814 0.3866,-4.4444 -2.7119,-8.6366 -2.5217,-3.4118 -3.7168,-6.4828 -2.8583,-7.3415 1.5194,-1.5193 -7.2623,-17.6292 -30.999,-56.8587 -6.946,-11.4797 -12.7287,-21.9447 -12.851,-23.2551 -0.1219,-1.3125 -2.1422,-4.7118 -4.4888,-7.5595 -4.6589,-5.6531 -14.8157,-24.7929 -14.9527,-28.1786 -0.048,-1.1622 -0.8399,-2.8681 -1.7634,-3.7919 -1.9001,-1.8992 -21.0796,-43.9246 -21.4964,-47.1005 -0.1474,-1.1338 -3.0773,-6.5327 -6.5058,-11.9982 -9.2425,-14.7268 -21.0484,-36.443 -21.1322,-38.8706 -0.037,-1.1679 -0.894,-2.9467 -1.8972,-3.9498 -3.7721,-3.7721 -14.4804,-26.9068 -20.4519,-44.1856 -3.6484,-10.5574 -6.8769,-24.6005 -7.8606,-34.1887 l -1.6688,-16.272 -6.1204,-2.5115 c -3.8494,-1.5817 -7.2896,-4.227 -9.2763,-7.1277 -5.8986,-8.6204 -4.5793,-25.4775 2.8993,-37.0732 1.6223,-2.5115 2.4701,-5.0477 1.8828,-5.635 -0.5853,-0.5839 -0.2693,-1.8595 0.7075,-2.8361 2.9056,-2.9055 0.5664,-5.4737 -11.4974,-12.6238 -6.7385,-3.9926 -15.219,-10.5505 -20.5805,-15.912 -8.1649,-8.1649 -9.119,-9.7202 -9.1194,-14.8532 0,-6.3856 3.0262,-9.0542 14.1432,-12.4716 8.5896,-2.6391 8.9137,-3.4438 2.9743,-7.3772 -2.8683,-1.902 -6.3138,-4.4416 -7.654,-5.6455 -1.3328,-1.2132 -3.2844,-2.3839 -4.3214,-2.6192 -1.0364,-0.2267 -8.6226,-4.8061 -16.8556,-10.1588 -14.7618,-9.5958 -15.1511,-9.9638 -27.9237,-26.43248 -15.0043,-19.3473 -26.3458,-37.81105 -26.346,-42.88988 0,-1.9474 -0.4481,-3.98807 -0.9961,-4.53572 -0.5491,-0.54992 -0.3126,-2.3159 0.5253,-3.93279 0.8379,-1.61574 0.8195,-5.65937 -0.04,-8.98696 -1.3278,-5.148 -3.6364,-8.08582 -15.4792,-19.69228 l -13.9203,-13.63975 -0.091,-9.99552 c -0.048,-5.49723 -0.7642,-12.06851 -1.5886,-14.60268 -2.495,-7.67197 -17.5356,-30.65527 -27.4528,-41.95077 -10.2611,-11.68412 -12.4226,-17.11615 -9.0552,-22.74009 1.2225,-2.04095 3.555,-7.53165 5.1855,-12.19918 3.3624,-9.62986 1.9882,-16.00526 -3.9362,-18.26164 -3.0483,-1.15937 -4.4363,-3.48633 -7.1479,-11.95483 -1.8499,-5.78268 -3.2435,-11.25836 -3.0966,-12.16942 0.1446,-0.90992 -0.5632,-2.77512 -1.5834,-4.1451 -2.5263,-3.39619 0.1701,-7.58608 13.8618,-21.54869 l 11.6965,-11.93698 -1.5132,-10.83996 c -0.8322,-5.9624 -1.9726,-11.32753 -2.5342,-11.92281 -0.5615,-0.59244 -1.7753,-6.4936 -2.6983,-13.10711 -1.6347,-11.71616 -2.7036,-14.86035 -4.4355,-13.04788 -0.4654,0.48756 -3.6406,5.64095 -7.0545,11.44999 -6.0059,10.22088 -6.2751,10.49357 -8.3443,8.42456 -3.5702,-3.57023 -5.388,-9.21656 -5.4269,-16.86019 -0.037,-6.9137 -0.1984,-7.2102 -3.1461,-5.68346 -1.7098,0.88441 -3.5101,1.20756 -4.0012,0.71717 -0.4909,-0.4904 -2.8301,-0.17008 -5.1963,0.71716 -4.8162,1.80284 -6.093,-0.44504 -3.5146,-6.18463 2.0342,-4.52749 -1.4244,-8.8183 -7.3435,-9.11537 -5.5534,-0.28346 -19.7643,-14.54428 -21.162,-21.24198 -0.9051,-4.34863 -0.2523,-5.56753 6.7646,-12.6068 l 7.7679,-7.79159 -6.7616,0.8022 c -13.3106,1.5789 -19.564,-2.60504 -33.1299,-22.15332 -4.1688,-6.0086 -12.4014,-15.78076 -18.2938,-21.71707 -9.7413,-9.82176 -10.6962,-11.2697 -10.5302,-16.06932 0.099,-2.9024 -1.4392,-8.14621 -3.4211,-11.65521 -3.4109,-6.04063 -3.3829,-6.52167 0.5442,-9.0343 5.9466,-3.80608 3.8242,-7.03531 -8.9236,-13.57228 -18.2546,-9.36085 -28.7805,-21.1904 -29.2335,-32.85355 -0.1219,-3.12888 -0.7486,-6.21666 -1.3946,-6.86267 -0.6455,-0.6463 -1.5061,-4.93342 -1.9112,-9.52753 -0.405,-4.59468 -1.7481,-12.81968 -2.9837,-18.27864 -1.8388,-8.1207 -2.8199,-9.97739 -5.3958,-10.21663 -4.9537,-0.45922 -5.9126,1.66677 -6.8866,15.28157 z M 864.20024,843.98792 c -2.14242,12.85455 -2.8097,43.40324 -1.32775,60.77479 4.01222,47.04066 9.6069,67.51956 24.50718,89.70718 4.40524,6.56191 7.54175,12.39901 6.96728,12.97361 -0.57317,0.5726 -0.24094,1.2359 0.74353,1.4655 2.79808,0.6605 6.69929,11.6861 8.17112,23.0973 0.73786,5.7197 1.79121,13.244 2.34028,16.7221 0.55049,3.477 1.65402,12.9719 2.45367,21.0977 2.17616,22.0964 3.46924,25.6796 13.90212,38.5243 8.94943,11.0179 16.73771,25.6733 17.20633,32.3764 0.12472,1.783 1.83231,7.672 3.79573,13.0865 1.96243,5.4141 4.10199,13.8132 4.75322,18.6652 0.6514,4.8518 1.69172,10.4981 2.31194,12.547 0.61937,2.0466 1.65061,9.4309 2.28926,16.4038 0.63836,6.973 1.52248,13.0397 1.96441,13.4816 0.44107,0.4394 1.75294,12.3355 2.91378,26.4297 1.16136,14.0944 2.97675,26.4339 4.03487,27.4209 1.06242,0.9808 6.476,10.5013 12.03981,21.1431 10.08071,19.281 10.10577,19.3685 7.08735,24.7572 -4.35917,7.7828 -4.41688,13.9073 -0.17574,18.8671 4.12545,4.8271 10.05327,8.2494 11.60064,6.702 0.57118,-0.5726 2.63169,-0.5556 4.57846,0.028 2.80007,0.8476 4.28057,3.1181 7.07287,10.8533 1.9435,5.379 3.2734,10.387 2.9575,11.1271 -0.3146,0.7399 0.1531,2.075 1.0423,2.9625 0.8881,0.8873 2.5883,6.4928 3.7783,12.4526 1.1894,5.9599 2.7777,13.5329 3.5288,16.8282 2.088,9.1596 7.144,39.9792 8.9137,54.3387 0.8697,7.054 1.8528,13.0969 2.1844,13.4286 0.3328,0.3316 2.4253,-1.2189 4.6512,-3.4447 2.2261,-2.2252 4.5688,-3.5263 5.2042,-2.891 0.6356,0.6349 0.6996,1.6129 0.1389,2.1741 -0.5592,0.5585 0.012,3.3716 1.2685,6.2493 2.1464,4.9204 4.4935,14.5825 12.9919,53.5048 1.9375,8.8744 4.2402,16.8522 5.1167,17.7287 0.8759,0.8759 3.2595,7.3417 5.296,14.3671 8.2721,28.5415 37.2425,76.7067 44.2579,73.5823 1.2328,-0.5471 4.5576,0.6605 7.3908,2.6873 5.7125,4.0889 20.8501,24.7586 21.2452,29.0126 0.1899,2.0579 1.7549,2.2648 6.47,0.8503 6.6456,-1.9927 10.2228,-0.085 9.7307,5.2158 -0.6522,7.0189 -9.1777,29.914 -12.3029,33.0392 -1.8159,1.817 -2.8225,3.7806 -2.2371,4.3659 0.5853,0.584 -0.1531,2.9685 -1.6416,5.2974 -1.4893,2.3273 -2.5316,4.4079 -2.319,4.6202 0.2154,0.2268 5.6458,2.0013 12.0683,3.9725 7.5465,2.3159 13.2623,5.1667 16.1566,8.0609 l 4.4791,4.479 -7.635,8.549 c -8.001,8.9592 -9.7754,14.7194 -5.167,16.772 1.357,0.6038 4.1999,0.4507 6.3173,-0.3401 4.4075,-1.6498 15.4992,1.7971 19.7758,6.1458 1.5919,1.6157 11.3866,14.3169 21.7687,28.22 l 18.8757,25.2788 -4.8643,6.969 -4.8643,6.9689 13.4072,18.2486 c 8.203,11.1654 13.8298,20.2751 14.4954,23.4703 3.6312,17.4331 0,67.4978 -8.3353,114.8049 -0.6959,3.9552 -1.3765,4.5836 -7.4968,6.9596 -3.7035,1.4343 -7.0743,2.2677 -7.493,1.8482 -0.419,-0.4195 -5.6029,2.2365 -11.5217,5.8969 -10.092,6.2436 -10.9545,7.09 -13.8769,13.5964 -3.8648,8.6405 -3.6778,13.0447 0.8326,19.6106 3.7568,5.4686 4.5153,5.5015 6.0988,0.2835 0.5533,-1.817 2.1149,-3.8024 3.478,-4.4082 2.1427,-0.9553 2.6799,-0.479 3.9849,3.5241 0.8297,2.5455 4.2159,8.0844 7.5245,12.3094 8.3329,10.6418 14.2611,30.6958 14.4401,48.8443 l 0.1418,14.3893 7.131,1.9275 c 10.4255,2.8177 11.921,5.1639 9.8348,15.4361 -1.0029,4.9396 -2.5155,9.6724 -3.3606,10.5174 -0.8459,0.8447 -1.1407,1.9332 -0.6554,2.4208 0.485,0.4847 -0.9893,6.2966 -3.2775,12.9135 -2.2882,6.6172 -3.8812,12.3103 -3.5398,12.6516 0.3407,0.3401 3.9841,0.6718 8.0964,0.737 4.1118,0.057 7.4755,0.7653 7.476,1.559 0,0.7937 -6.0928,7.3797 -13.5391,14.6376 -7.4524,7.2518 -13.0787,13.6562 -12.5155,14.2194 0.5633,0.5641 3.1074,0.9184 5.6546,0.7909 7.6367,-0.3799 13.7395,2.4123 20.8812,9.5527 6.1601,6.1603 6.9298,7.8319 8.6105,18.6826 1.8544,11.9775 1.9145,33.1719 0.1105,39.5181 -0.7355,2.5823 -0.042,3.9628 2.8711,5.7053 3.444,2.0608 4.279,1.7943 8.1201,-2.6136 2.347,-2.7071 3.9149,-5.2781 3.467,-5.7279 -0.4482,-0.4507 0.7778,-3.1269 2.7269,-5.9502 1.9465,-2.8233 3.4726,-5.7215 3.3898,-6.4404 -0.1984,-1.7177 11.8749,-28.254 13.671,-30.0503 0.7637,-0.7625 2.3182,-4.3104 3.4532,-7.88 6.0312,-18.9701 8.1569,-24.5498 10.1025,-26.5201 1.1807,-1.1934 3.4432,-7.1153 5.0331,-13.1585 1.5897,-6.0431 4.9428,-17.2618 7.4521,-24.9301 2.5084,-7.6686 4.8657,-15.1999 5.2371,-16.7363 0.3708,-1.5364 2.6603,-11.2181 5.0854,-21.5147 2.4256,-10.2963 5.4054,-22.9292 6.6229,-28.0723 1.2181,-5.1427 3.4287,-18.3654 4.914,-29.3826 1.4853,-11.0168 3.0819,-21.9736 3.5484,-24.3484 3.4267,-17.4422 4.4912,-89.7574 1.694,-115.0319 -0.5706,-5.1543 -1.4891,-19.0678 -2.0413,-30.9195 l -1.0037,-21.5478 9.4018,-9.4261 9.4024,-9.4255 -1.4312,-7.2138 c -0.7877,-3.9666 -2.0069,-8.5822 -2.7105,-10.2538 -1.3331,-3.1691 -6.845,-24.9823 -6.8267,-27.0187 0.01,-0.6406 -1.1225,-4.7183 -2.5087,-9.057 -2.3995,-7.5163 -2.808,-8.007 -8.6361,-10.3717 -3.3652,-1.3634 -6.3454,-2.7099 -6.6234,-2.9874 -0.2777,-0.2835 0.5259,-4.4184 1.7864,-9.2004 6.4953,-24.639 6.9749,-69.573 0.8655,-81.0624 -1.6558,-3.1147 -2.5728,-6.1004 -2.0376,-6.6359 0.5352,-0.5357 -0.2239,-2.1742 -1.6908,-3.6391 -4.431,-4.4308 -6.6801,-19.319 -6.9481,-45.9918 l -0.2551,-25.3287 -9.2403,-10.6436 c -9.0348,-10.4057 -9.2266,-10.826 -8.674,-18.8271 0.3112,-4.5017 1.2042,-10.3779 1.9837,-13.0586 1.6619,-5.7124 0.3452,-11.2417 -3.0357,-12.7474 -4.281,-1.9078 -6.6993,0.7143 -7.9646,8.6419 -0.6849,4.2769 -3.0608,10.3349 -5.282,13.4592 l -4.0381,5.6818 -2.2697,-7.2116 -2.2697,-7.2114 -4.9807,0.4649 -4.9807,0.4649 0.5797,-9.8294 c 0.3186,-5.4057 0.9476,-10.2416 1.3972,-10.7459 1.8581,-2.0976 -1.7229,-3.0058 -6.727,-1.7206 -2.9485,0.7597 -6.8226,0.3883 -8.6067,-0.8221 -3.5183,-2.3867 -18.9299,-20.6056 -18.9289,-22.3767 0,-0.5981 4.6151,-7.774 10.2545,-15.9536 5.6404,-8.178 10.1761,-15.5716 10.0807,-16.4282 -1.9993,-17.9547 -3.465,-26.8767 -8.5299,-51.9248 -3.3091,-16.3649 -7.4101,-32.3404 -9.1132,-35.5011 -1.7045,-3.1595 -2.7873,-6.0545 -2.4111,-6.4289 0.3775,-0.3771 -2.3786,-3.3889 -6.1253,-6.6946 -5.4467,-4.8093 -8.2094,-6.0767 -13.8067,-6.3292 -11.0512,-0.4989 -18.5657,-3.7188 -25.8304,-11.0625 -5.6558,-5.7359 -7.1022,-6.4568 -10.6053,-5.3969 -2.2289,0.6775 -3.998,1.6073 -3.933,2.0721 0.065,0.4678 1.1676,6.8256 2.4471,14.1327 1.2801,7.3072 2.0724,13.5408 1.7612,13.8521 -1.0103,1.0091 -14.135,4.989 -23.0298,6.98 l -8.6792,1.9418 1.0763,-5.296 c 0.5913,-2.9126 2.395,-9.2169 4.0058,-14.0083 1.6101,-4.7928 2.545,-9.4141 2.0753,-10.2719 -0.4649,-0.8674 -3.177,-0.4819 -6.0138,0.8334 -2.8381,1.3153 -7.8258,3.0297 -11.0855,3.8092 -5.6466,1.3493 -6.0594,1.1679 -8.7382,-3.8843 -2.6666,-5.0318 -2.522,-5.6727 2.851,-12.5804 3.3099,-4.256 5.48,-8.6349 5.2201,-10.5469 -0.7246,-5.3541 -5.1325,-8.572 -10.272,-7.5019 -7.0655,1.4712 -15.7377,-1.1395 -28.0681,-8.4458 -14.3365,-8.4966 -22.9572,-19.7581 -23.2466,-30.3716 -0.2296,-8.4254 -2.6144,-11.0494 -8.8564,-9.7503 -7.3235,1.5251 -7.441,-0.4422 -0.4431,-7.4398 5.8406,-5.8405 6.2283,-6.7493 4.4981,-10.601 -2.2306,-4.9686 -1.9959,-4.9382 -14.2467,-1.8368 -9.4463,2.3896 -9.6415,2.3499 -14.3246,-3.0232 -6.4734,-7.4273 -14.1729,-20.4715 -17.7522,-30.079 -1.6324,-4.3826 -4.6768,-12.505 -6.765,-18.0499 -2.0888,-5.5443 -4.6103,-15.5134 -5.6045,-22.1519 -0.9941,-6.639 -2.1642,-13.9362 -2.6008,-16.2164 -0.4368,-2.2819 -2.0239,-13.1828 -3.5281,-24.2283 -1.504,-11.0455 -3.2551,-21.6434 -3.8913,-23.5517 -1.6801,-5.0434 19.9824,15.7199 33.0188,31.648 7.2786,8.89 11.1819,12.7412 13.1112,12.9107 6.2573,0.5811 7.2366,-6.4831 1.8309,-13.2174 -1.7558,-2.1883 -3.2995,-5.1072 -3.4269,-6.4854 -0.1276,-1.3805 -0.7957,-2.503 -1.4834,-2.5058 -2.1328,0 -9.8801,-17.4124 -15.866,-35.6562 -6.6302,-20.2084 -11.0503,-38.2152 -13.366,-54.4541 l -1.6392,-11.4962 -19.44147,0.6407 -19.44125,0.6406 -2.24334,-11.8913 c -1.23392,-6.5401 -2.70567,-12.354 -3.27098,-12.9192 -0.56721,-0.5669 -0.89603,-2.4463 -0.73588,-4.1794 0.16158,-1.732 -0.46714,-3.3293 -1.39294,-3.5496 -0.92806,-0.2267 -10.50324,-12.6439 -21.27708,-27.61253 l -19.59077,-27.2143 -1.8771,-20.4891 -1.8771,-20.48938 -11.67642,-14.53068 c -13.75237,-17.11559 -24.72142,-33.50296 -27.11188,-40.50623 -0.93997,-2.75244 -2.75754,-6.05707 -4.03965,-7.3389 -1.2807,-1.28126 -3.54459,-6.69146 -5.02884,-12.01946 -2.16,-7.75701 -3.39746,-9.9 -6.20583,-10.75068 -4.43792,-1.34362 -5.94782,0.32315 -7.22163,7.97131 z" />
        </g>
        <path
           style="fill:#7b36fe;fill-opacity:0.6;stroke:#7b36fe;stroke-width:0.023622;stroke-miterlimit:4;stroke-dasharray:none;stroke-opacity:1"
           d="m 130.53984,559.01118 c -1.35419,-1.14929 -8.20923,-7.25731 -10.25047,-9.13342 -0.83914,-0.77126 -0.92364,-0.90387 -0.58035,-0.9108 0.50172,-0.0101 0.5054,-0.27395 0.0206,-1.47471 -0.20965,-0.51926 -0.44433,-1.22536 -0.52152,-1.56911 -0.0772,-0.34375 -0.26621,-1.06696 -0.42005,-1.60714 -0.15384,-0.54018 -0.3329,-1.50446 -0.39791,-2.14286 -0.12398,-1.21755 -0.25452,-1.42135 -0.91326,-1.42583 -0.32781,-0.002 -0.40178,-0.10252 -0.40178,-0.54474 0,-0.8001 0.44704,-1.3518 1.95274,-2.40991 1.79936,-1.26447 2.44649,-1.9685 2.95145,-3.21093 0.38538,-0.94821 0.49538,-1.06583 1.27277,-1.36092 1.77905,-0.67532 2.8122,-2.30504 3.04428,-4.80215 l 0.11576,-1.24552 h 0.93463 c 1.12252,0 1.43102,-0.26057 1.06533,-0.89983 -0.59684,-1.04332 -0.66195,-1.24082 -0.55265,-1.67629 0.10245,-0.4082 0.20482,-0.45959 0.91552,-0.45959 0.62849,0 0.80017,-0.064 0.80017,-0.29829 0,-0.3314 -0.15179,-0.49405 6.46343,6.92546 4.462,5.0045 4.55799,5.1284 4.67881,6.03924 0.0992,0.74816 0.26522,1.08382 0.84913,1.71729 l 0.72577,0.78736 -0.21106,1.83411 c -0.11609,1.00876 -0.28548,1.91045 -0.37643,2.00376 -0.10389,0.10657 -0.16537,0.0922 -0.16537,-0.0387 0,-0.23721 -1.18378,-1.47024 -1.41152,-1.47024 -0.0823,0 -0.20368,0.42187 -0.26977,0.9375 -0.41867,3.26667 -2.87433,10.41641 -4.1246,12.00893 -0.30842,0.39285 -1.26915,1.81919 -2.13495,3.16964 -0.86579,1.35045 -1.59067,2.45536 -1.61084,2.45536 -0.0202,0 -0.6717,-0.53896 -1.44785,-1.19768 z"
           id="path4398"
           transform="scale(0.26458333)"
           inkscape:export-xdpi="96"
           inkscape:export-ydpi="96" />
        <path
           style="fill:#7b36fe;fill-opacity:0.6;stroke:#7b36fe;stroke-width:0.0472441;stroke-miterlimit:4;stroke-dasharray:none;stroke-opacity:1"
           d="m 84.296367,661.05041 c -3.863094,-2.8552 -9.464286,-7.59239 -9.464286,-8.0044 0,-0.16275 0.378127,-1.3077 0.840281,-2.54431 5.42711,-14.52162 6.598406,-18.32317 7.015477,-22.76934 0.430281,-4.587 0.741709,-4.93536 2.0674,-2.31262 1.499653,2.96691 4.018351,6.28193 6.941934,9.13674 2.422452,2.36547 2.483202,2.46776 2.106807,3.54749 -0.213163,0.61148 -0.892388,1.68674 -1.509387,2.38946 -1.059645,1.20687 -1.110969,1.39732 -0.926068,3.43644 0.193298,2.13173 0.177666,2.17839 -1.248249,3.72532 -1.338523,1.45213 -1.430806,1.68361 -1.263377,3.16903 0.133038,1.18031 0.502061,1.94659 1.400744,2.90864 2.16859,2.32152 2.140556,2.2372 1.564661,4.70584 -0.605842,2.59702 -1.005486,3.16224 -1.780871,2.51873 -0.656242,-0.54463 -1.280781,-0.21275 -1.280781,0.68061 0,0.98661 -0.379599,1.79423 -0.841781,1.79094 -0.22452,-0.002 -1.854647,-1.07196 -3.622504,-2.37857 z"
           id="path4400"
           transform="scale(0.26458333)"
           inkscape:export-xdpi="96"
           inkscape:export-ydpi="96" />
        <path
           style="fill:#7b36fe;fill-opacity:0.6;stroke:#7b36fe;stroke-width:0.0472441;stroke-miterlimit:4;stroke-dasharray:none;stroke-opacity:1"
           d="m 119.69462,676.88342 -1.38746,-0.38676 0.21968,-3.05025 c 0.31063,-4.31326 1.07145,-6.8706 3.11714,-10.47771 1.5815,-2.7886 1.83848,-3.54575 2.28614,-6.73572 0.2774,-1.97669 0.57298,-3.66259 0.65685,-3.74646 0.32229,-0.32229 9.17649,2.94379 8.8914,3.2798 -0.16059,0.18927 -0.49355,1.1448 -0.73991,2.12338 -0.24637,0.97859 -0.8288,2.27858 -1.29429,2.88887 -4.0415,5.29869 -4.82637,6.6514 -4.82637,8.3182 0,2.46563 -0.45261,3.64005 -2.33899,6.06916 -1.81543,2.33775 -2.04738,2.42465 -4.58419,1.71749 z"
           id="path4402"
           transform="scale(0.26458333)"
           inkscape:export-xdpi="96"
           inkscape:export-ydpi="96" />
        <path
           style="fill:#7b36fe;fill-opacity:0.6;stroke:#7b36fe;stroke-width:0.0472441;stroke-miterlimit:4;stroke-dasharray:none;stroke-opacity:1"
           d="m 135.50686,634.5926 c -1.28798,-1.3259 -2.85015,-3.07609 -3.47149,-3.88932 -1.39944,-1.83165 -1.29268,-2.7285 0.78674,-6.60908 1.39154,-2.59686 1.44351,-2.80422 1.06145,-4.23559 -0.35333,-1.32374 -0.32039,-1.58639 0.2734,-2.18018 0.37132,-0.37131 0.97687,-0.67512 1.34568,-0.67512 0.3688,0 0.84274,-0.20747 1.05318,-0.46104 0.59936,-0.72219 2.11167,-6.94027 2.78745,-11.461 0.54074,-3.6174 0.6847,-4.06968 1.2065,-3.79042 0.49245,0.26355 0.6883,0.004 1.15994,-1.5388 0.3121,-1.02073 0.84468,-3.13585 1.1835,-4.70026 1.59188,-7.34995 5.67943,-15.40875 8.13872,-16.04587 0.42044,-0.10893 1.39677,-1.0784 2.16963,-2.15439 0.98057,-1.36517 1.68207,-1.98858 2.32143,-2.063 0.80134,-0.0933 0.9044,-0.25562 0.82189,-1.29462 -0.0519,-0.65338 -0.558,-2.17751 -1.12469,-3.38696 l -1.03034,-2.19898 1.63884,-0.62209 c 0.90136,-0.34215 1.87515,-0.85841 2.16399,-1.14725 0.46211,-0.46211 0.41111,-0.67468 -0.42487,-1.77069 -1.25917,-1.65087 -1.19954,-2.00749 0.3357,-2.00749 0.99551,0 1.57055,-0.28483 2.54762,-1.2619 0.69405,-0.69405 1.36101,-1.16356 1.48214,-1.04337 0.12113,0.1202 4.02969,4.50502 8.68568,9.74405 8.24068,9.27261 8.46588,9.56658 8.48214,11.07255 0.0136,1.26039 -0.22081,1.83689 -1.26519,3.11142 -1.18958,1.45173 -1.27318,1.71071 -1.16072,3.59614 0.15456,2.59132 -0.4129,2.81921 -1.23767,0.49703 -0.6998,-1.97034 -1.18848,-2.256 -1.5302,-0.89449 -0.14023,0.55873 -0.47691,0.89286 -0.89966,0.89286 -0.55007,0 -0.67557,0.26539 -0.67557,1.42857 0,1.26712 -0.0962,1.42857 -0.8513,1.42857 -0.88617,0 -3.43441,2.45546 -3.43441,3.30937 0,0.24759 0.58594,1.32025 1.3021,2.38368 l 1.30211,1.93352 -0.43208,2.88314 c -0.45777,3.0546 -1.50722,7.59681 -2.12684,9.20533 -0.40582,1.05349 -1.68559,1.83885 -3.5869,2.20121 -0.67109,0.12789 -1.74519,0.63299 -2.38688,1.12243 -0.64169,0.48944 -1.27992,0.88989 -1.41828,0.88989 -0.13837,0 -0.1473,-0.88722 -0.0198,-1.97161 0.2581,-2.1961 0.17607,-2.27714 -3.0358,-2.9988 -1.57696,-0.35431 -1.56447,-0.38317 -0.85145,1.96723 0.29252,0.96425 0.53359,1.77442 0.53571,1.80038 0.002,0.026 -0.59881,-0.16706 -1.33542,-0.42893 -1.23412,-0.43875 -1.38857,-0.41806 -1.96693,0.2635 -0.60146,0.70876 -0.59584,0.7911 0.13457,1.97293 0.91566,1.48158 0.57876,2.0122 -1.35615,2.13599 -1.50244,0.0961 -4.19669,1.6578 -5.20578,3.01746 -0.38236,0.51519 -0.80557,1.47948 -0.94046,2.14285 -0.17834,0.87701 -0.46094,1.23729 -1.03561,1.32027 -0.92166,0.13309 -1.00656,0.51183 -0.25464,1.13588 0.29465,0.24453 0.53572,0.73878 0.53572,1.09833 0,0.56855 -0.22103,0.62889 -1.69643,0.46305 l -1.69643,-0.19067 -1.11518,1.72536 c -1.16659,1.8049 -2.3305,4.59798 -2.98856,7.17178 -0.21344,0.83483 -0.42637,1.51786 -0.47318,1.51786 -0.0468,0 -1.1389,-1.08482 -2.42688,-2.41071 z"
           id="path4404"
           transform="scale(0.26458333)"
           inkscape:export-xdpi="96"
           inkscape:export-ydpi="96" />
        <path
           style="fill:#7b36fe;fill-opacity:0.6;stroke:#7b36fe;stroke-width:0.0472441;stroke-miterlimit:4;stroke-dasharray:none;stroke-opacity:1"
           d="m 197.5975,630.48545 c -0.68705,-0.83482 -3.67619,-3.96726 -6.64253,-6.96098 -5.18173,-5.22956 -6.25339,-6.72817 -5.49666,-7.68651 0.19186,-0.24299 0.45328,-1.75135 0.58092,-3.35193 0.12765,-1.60058 0.55127,-4.15816 0.94139,-5.68351 1.18513,-4.63379 2.89273,-6.82352 5.67705,-7.27992 1.00086,-0.16405 1.29335,-0.42218 1.63788,-1.44543 0.40486,-1.20246 0.43386,-1.21874 0.83512,-0.46898 0.22863,0.4272 0.4157,1.24546 0.4157,1.81835 0,2.6694 1.45425,4.233 3.1119,3.34585 0.59026,-0.3159 1.28828,0.32422 5.37151,4.92598 l 4.6931,5.28906 -2.10257,4.59723 c -1.15641,2.52847 -2.79523,5.81371 -3.64182,7.30053 -0.8466,1.48681 -2.01078,3.69663 -2.58708,4.91071 -0.57629,1.21408 -1.15961,2.20741 -1.29626,2.20741 -0.13665,0 -0.81059,-0.68303 -1.49765,-1.51786 z"
           id="path4408"
           transform="scale(0.26458333)"
           inkscape:export-xdpi="96"
           inkscape:export-ydpi="96" />
        <path
           style="fill:#7b36fe;fill-opacity:0.6;stroke:#7b36fe;stroke-width:0.0472441;stroke-miterlimit:4;stroke-dasharray:none;stroke-opacity:1"
           d="m 165.55989,684.43749 c -2.05506,-0.17809 -3.78153,-0.36886 -3.8366,-0.42392 -0.0551,-0.0551 0.45408,-1.7458 1.13144,-3.75716 0.67736,-2.01137 1.39668,-4.81169 1.59849,-6.22292 0.45255,-3.16458 2.57275,-8.99446 3.2711,-8.99446 0.27534,0 3.50963,0.62877 7.18732,1.39727 l 6.6867,1.39728 -0.10631,1.74245 c -0.0944,1.54693 -0.30878,1.95121 -1.91068,3.60273 -1.52367,1.57086 -1.83912,2.13292 -2.02769,3.61288 -0.23539,1.84734 -1.29149,4.0111 -3.18723,6.53 -1.1099,1.47476 -1.19585,1.51566 -3.10578,1.47819 -1.08035,-0.0212 -3.6457,-0.18425 -5.70076,-0.36234 z"
           id="path4410"
           transform="scale(0.26458333)"
           inkscape:export-xdpi="96"
           inkscape:export-ydpi="96" />
        <path
           style="fill:#7b36fe;fill-opacity:0.60000002;stroke:#b086fe;stroke-width:0.00417583;stroke-miterlimit:4;stroke-dasharray:none;stroke-opacity:1"
           d="m 142.90324,640.36915 c -0.35156,-0.17403 -0.6392,-0.32763 -0.6392,-0.34133 0,-0.0431 0.60988,-0.6215 0.73504,-0.6971 0.14004,-0.0846 0.41001,-0.0956 0.55057,-0.0225 0.28013,0.14573 0.38496,0.46811 0.28019,0.86161 -0.0615,0.23088 -0.19744,0.51577 -0.24616,0.51577 -0.0227,0 -0.32888,-0.14239 -0.68044,-0.31643 z"
           id="path4412"
           transform="scale(0.26458333)" />
        <path
           style="fill:#ffffff;fill-opacity:0.60000002;stroke:#7b36fe;stroke-width:0.00110486;stroke-miterlimit:4;stroke-dasharray:none;stroke-opacity:1"
           d="m 36.3745,170.5108 c -0.01603,-0.0111 -0.02839,-0.0419 -0.02839,-0.0708 0,-0.0154 0.01299,-0.0917 0.02885,-0.16968 0.03528,-0.17332 0.06082,-0.33842 0.104624,-0.67625 0.06222,-0.47991 0.09594,-0.62511 0.163489,-0.70403 0.05632,-0.0658 0.114834,-0.0528 0.247576,0.0548 0.143118,0.11608 0.336994,0.23503 0.576064,0.35344 l 0.0891,0.0441 -0.08952,0.10075 c -0.04924,0.0554 -0.208164,0.23441 -0.353169,0.39777 -0.419489,0.47259 -0.603692,0.64665 -0.711004,0.67185 -0.01013,0.002 -0.02257,0.002 -0.02762,-0.002 z"
           id="path4414"
           inkscape:export-xdpi="96"
           inkscape:export-ydpi="96" />
      </g>
    </g>
  </g>
  <g
     inkscape:groupmode="layer"
     id="layer6"
     inkscape:label="text"
     transform="translate(-1.8779525,-120.03691)">
    <text
       xml:space="preserve"
       id="text4338"
       style="font-size:4.23333px;line-height:1.25;font-family:sans-serif;white-space:pre;shape-inside:url(#rect4340);fill:#000000;" />
    <g
       id="g955">
      <g
         id="g977">
        <text
           xml:space="preserve"
           id="text4344"
           style="font-style:normal;font-variant:normal;font-weight:bold;font-stretch:normal;font-size:12.7px;line-height:1.25;font-family:Impact;-inkscape-font-specification:'Impact Bold';text-align:start;white-space:pre;shape-inside:url(#rect4346);"
           transform="translate(-9.5250023,-5.3040427)"
           x="-3.4226105e-07"
           y="0"><tspan
             x="104.76953"
             y="141.80554"><tspan
               style="font-style:normal;font-variant:normal;font-weight:bold;font-stretch:normal;font-family:Impact;-inkscape-font-specification:'Impact Bold';text-align:start;text-anchor:start;fill:#7b36fe;fill-opacity:0.6">           S</tspan><tspan
               style="font-style:normal;font-variant:normal;font-weight:bold;font-stretch:normal;font-family:Impact;-inkscape-font-specification:'Impact Bold';text-align:start;text-anchor:start;fill:#ffffff;fill-opacity:0.6">tefan</tspan><tspan
               style="font-style:normal;font-variant:normal;font-weight:bold;font-stretch:normal;font-size:12.7px;font-family:Impact;-inkscape-font-specification:'Impact Bold';text-align:start;text-anchor:start;fill:#685887;fill-opacity:0.598394">
</tspan></tspan><tspan
             x="104.76953"
             y="157.68054"><tspan
               style="font-style:normal;font-variant:normal;font-weight:bold;font-stretch:normal;font-size:12.7px;font-family:Impact;-inkscape-font-specification:'Impact Bold';text-align:start;text-anchor:start;fill:#685887;fill-opacity:0.598394">           </tspan><tspan
               style="font-style:normal;font-variant:normal;font-weight:bold;font-stretch:normal;font-family:Impact;-inkscape-font-specification:'Impact Bold';text-align:start;text-anchor:start;fill:#7b36fe;fill-opacity:0.6">C</tspan><tspan
               style="font-style:normal;font-variant:normal;font-weight:bold;font-stretch:normal;font-family:Impact;-inkscape-font-specification:'Impact Bold';text-align:start;text-anchor:start;fill:#ffffff;fill-opacity:0.6">oussens</tspan><tspan
               style="font-style:normal;font-variant:normal;font-weight:bold;font-stretch:normal;font-size:12.7px;font-family:Impact;-inkscape-font-specification:'Impact Bold';text-align:start;text-anchor:start;fill:#685887;fill-opacity:0.598394">
</tspan></tspan><tspan
             x="104.76953"
             y="173.55554"><tspan
               style="font-style:normal;font-variant:normal;font-weight:bold;font-stretch:normal;font-size:12.7px;font-family:Impact;-inkscape-font-specification:'Impact Bold';text-align:start;text-anchor:start;fill:#685887;fill-opacity:0.598394">           </tspan><tspan
               style="font-style:normal;font-variant:normal;font-weight:bold;font-stretch:normal;font-family:Impact;-inkscape-font-specification:'Impact Bold';text-align:start;text-anchor:start;fill:#7b36fe;fill-opacity:0.6">A</tspan><tspan
               style="font-style:normal;font-variant:normal;font-weight:bold;font-stretch:normal;font-family:Impact;-inkscape-font-specification:'Impact Bold';text-align:start;text-anchor:start;fill:#ffffff;fill-opacity:0.6">nsible
</tspan></tspan><tspan
             x="104.76953"
             y="189.43054"><tspan
               style="font-style:normal;font-variant:normal;font-weight:bold;font-stretch:normal;font-family:Impact;-inkscape-font-specification:'Impact Bold';text-align:start;text-anchor:start;fill:#ffffff;fill-opacity:0.6">c</tspan><tspan
               style="font-style:normal;font-variant:normal;font-weight:bold;font-stretch:normal;font-size:3.88056px;font-family:Impact;-inkscape-font-specification:'Impact Bold';text-align:start;text-anchor:start;fill:#685887;fill-opacity:0.598394"> </tspan><tspan
               style="font-style:normal;font-variant:normal;font-weight:bold;font-stretch:normal;font-family:Impact;-inkscape-font-specification:'Impact Bold';fill:#ffffff;fill-opacity:0.6">ont</tspan><tspan
               style="font-style:normal;font-variant:normal;font-weight:bold;font-stretch:normal;font-family:Impact;-inkscape-font-specification:'Impact Bold';fill:#7b36fe;fill-opacity:0.6">R</tspan><tspan
               style="font-style:normal;font-variant:normal;font-weight:bold;font-stretch:normal;font-family:Impact;-inkscape-font-specification:'Impact Bold';fill:#ffffff;fill-opacity:0.6">oller</tspan></tspan></text>
        <text
           xml:space="preserve"
           id="text998"
           style="line-height:1.25;font-family:sans-serif;font-size:4.23333333px;white-space:pre;shape-inside:url(#rect1000);" />
      </g>
    </g>
  </g>
</svg>
